<mxfile host="Electron" agent="Mozilla/5.0 (Windows NT 10.0; Win64; x64) AppleWebKit/537.36 (KHTML, like Gecko) draw.io/24.7.17 Chrome/128.0.6613.36 Electron/32.0.1 Safari/537.36" version="24.7.17">
  <diagram name="Page-1" id="I1JmYus51bPRpTJSfx-f">
    <mxGraphModel dx="1098" dy="988" grid="1" gridSize="10" guides="1" tooltips="1" connect="1" arrows="1" fold="1" page="1" pageScale="1" pageWidth="850" pageHeight="1100" math="0" shadow="0">
      <root>
        <mxCell id="0" />
        <mxCell id="1" parent="0" />
        <mxCell id="V1wCiQhz8U4Y6uBU5TtN-47" style="edgeStyle=orthogonalEdgeStyle;rounded=0;orthogonalLoop=1;jettySize=auto;html=1;exitX=0.5;exitY=0.5;exitDx=0;exitDy=20;exitPerimeter=0;" edge="1" parent="1" source="sDq0VXqV6MLcIJx__lWi-2" target="V1wCiQhz8U4Y6uBU5TtN-37">
          <mxGeometry relative="1" as="geometry" />
        </mxCell>
        <mxCell id="sDq0VXqV6MLcIJx__lWi-2" value="UI Microservice" style="html=1;dashed=0;whiteSpace=wrap;shape=mxgraph.dfd.start;fillColor=#fa6800;fontColor=#000000;strokeColor=#C73500;fontStyle=1" parent="1" vertex="1">
          <mxGeometry x="300" y="270" width="120" height="40" as="geometry" />
        </mxCell>
        <mxCell id="sDq0VXqV6MLcIJx__lWi-3" value="Business Logic&amp;nbsp;&lt;span style=&quot;background-color: initial;&quot;&gt;component microservice&lt;/span&gt;" style="html=1;dashed=0;whiteSpace=wrap;shape=mxgraph.dfd.start;fontStyle=1;fillColor=#f0a30a;fontColor=#000000;strokeColor=#BD7000;" parent="1" vertex="1">
          <mxGeometry x="40" y="370" width="120" height="50" as="geometry" />
        </mxCell>
        <mxCell id="sDq0VXqV6MLcIJx__lWi-9" value="&lt;font style=&quot;font-size: 17px;&quot;&gt;&lt;b&gt;Microservices&lt;/b&gt;&lt;/font&gt;&lt;div&gt;&lt;font style=&quot;font-size: 17px;&quot;&gt;&lt;b&gt;Architecture&lt;/b&gt;&lt;/font&gt;&lt;/div&gt;" style="text;html=1;align=center;verticalAlign=middle;resizable=0;points=[];autosize=1;strokeColor=none;fillColor=none;" parent="1" vertex="1">
          <mxGeometry x="290" y="210" width="140" height="50" as="geometry" />
        </mxCell>
        <mxCell id="V1wCiQhz8U4Y6uBU5TtN-22" value="Database" style="shape=datastore;whiteSpace=wrap;html=1;" vertex="1" parent="1">
          <mxGeometry x="72.5" y="490" width="55" height="50" as="geometry" />
        </mxCell>
        <mxCell id="V1wCiQhz8U4Y6uBU5TtN-23" value="" style="endArrow=classic;html=1;rounded=0;" edge="1" parent="1">
          <mxGeometry width="50" height="50" relative="1" as="geometry">
            <mxPoint x="87.5" y="480" as="sourcePoint" />
            <mxPoint x="87.5" y="440" as="targetPoint" />
          </mxGeometry>
        </mxCell>
        <mxCell id="V1wCiQhz8U4Y6uBU5TtN-24" value="" style="endArrow=classic;html=1;rounded=0;" edge="1" parent="1">
          <mxGeometry width="50" height="50" relative="1" as="geometry">
            <mxPoint x="107" y="440" as="sourcePoint" />
            <mxPoint x="107" y="480" as="targetPoint" />
            <Array as="points">
              <mxPoint x="107.5" y="460" />
            </Array>
          </mxGeometry>
        </mxCell>
        <mxCell id="V1wCiQhz8U4Y6uBU5TtN-25" value="Business Logic&amp;nbsp;&lt;span style=&quot;background-color: initial;&quot;&gt;component microservice&lt;/span&gt;" style="html=1;dashed=0;whiteSpace=wrap;shape=mxgraph.dfd.start;fontStyle=1;fillColor=#f0a30a;fontColor=#000000;strokeColor=#BD7000;" vertex="1" parent="1">
          <mxGeometry x="170" y="370" width="120" height="50" as="geometry" />
        </mxCell>
        <mxCell id="V1wCiQhz8U4Y6uBU5TtN-26" value="Database" style="shape=datastore;whiteSpace=wrap;html=1;" vertex="1" parent="1">
          <mxGeometry x="202.5" y="490" width="55" height="50" as="geometry" />
        </mxCell>
        <mxCell id="V1wCiQhz8U4Y6uBU5TtN-27" value="" style="endArrow=classic;html=1;rounded=0;" edge="1" parent="1">
          <mxGeometry width="50" height="50" relative="1" as="geometry">
            <mxPoint x="217.5" y="480" as="sourcePoint" />
            <mxPoint x="217.5" y="440" as="targetPoint" />
          </mxGeometry>
        </mxCell>
        <mxCell id="V1wCiQhz8U4Y6uBU5TtN-28" value="" style="endArrow=classic;html=1;rounded=0;" edge="1" parent="1">
          <mxGeometry width="50" height="50" relative="1" as="geometry">
            <mxPoint x="237" y="440" as="sourcePoint" />
            <mxPoint x="237" y="480" as="targetPoint" />
            <Array as="points">
              <mxPoint x="237.5" y="460" />
            </Array>
          </mxGeometry>
        </mxCell>
        <mxCell id="V1wCiQhz8U4Y6uBU5TtN-29" value="Business Logic&amp;nbsp;&lt;span style=&quot;background-color: initial;&quot;&gt;component microservice&lt;/span&gt;" style="html=1;dashed=0;whiteSpace=wrap;shape=mxgraph.dfd.start;fontStyle=1;fillColor=#f0a30a;fontColor=#000000;strokeColor=#BD7000;" vertex="1" parent="1">
          <mxGeometry x="300" y="370" width="120" height="50" as="geometry" />
        </mxCell>
        <mxCell id="V1wCiQhz8U4Y6uBU5TtN-30" value="Database" style="shape=datastore;whiteSpace=wrap;html=1;" vertex="1" parent="1">
          <mxGeometry x="332.5" y="490" width="55" height="50" as="geometry" />
        </mxCell>
        <mxCell id="V1wCiQhz8U4Y6uBU5TtN-31" value="" style="endArrow=classic;html=1;rounded=0;" edge="1" parent="1">
          <mxGeometry width="50" height="50" relative="1" as="geometry">
            <mxPoint x="347.5" y="480" as="sourcePoint" />
            <mxPoint x="347.5" y="440" as="targetPoint" />
          </mxGeometry>
        </mxCell>
        <mxCell id="V1wCiQhz8U4Y6uBU5TtN-32" value="" style="endArrow=classic;html=1;rounded=0;" edge="1" parent="1">
          <mxGeometry width="50" height="50" relative="1" as="geometry">
            <mxPoint x="367" y="440" as="sourcePoint" />
            <mxPoint x="367" y="480" as="targetPoint" />
            <Array as="points">
              <mxPoint x="367.5" y="460" />
            </Array>
          </mxGeometry>
        </mxCell>
        <mxCell id="V1wCiQhz8U4Y6uBU5TtN-33" value="Business Logic&amp;nbsp;&lt;span style=&quot;background-color: initial;&quot;&gt;component microservice&lt;/span&gt;" style="html=1;dashed=0;whiteSpace=wrap;shape=mxgraph.dfd.start;fontStyle=1;fillColor=#f0a30a;fontColor=#000000;strokeColor=#BD7000;" vertex="1" parent="1">
          <mxGeometry x="430" y="370" width="120" height="50" as="geometry" />
        </mxCell>
        <mxCell id="V1wCiQhz8U4Y6uBU5TtN-34" value="Database" style="shape=datastore;whiteSpace=wrap;html=1;" vertex="1" parent="1">
          <mxGeometry x="462.5" y="490" width="55" height="50" as="geometry" />
        </mxCell>
        <mxCell id="V1wCiQhz8U4Y6uBU5TtN-35" value="" style="endArrow=classic;html=1;rounded=0;" edge="1" parent="1">
          <mxGeometry width="50" height="50" relative="1" as="geometry">
            <mxPoint x="477.5" y="480" as="sourcePoint" />
            <mxPoint x="477.5" y="440" as="targetPoint" />
          </mxGeometry>
        </mxCell>
        <mxCell id="V1wCiQhz8U4Y6uBU5TtN-36" value="" style="endArrow=classic;html=1;rounded=0;" edge="1" parent="1">
          <mxGeometry width="50" height="50" relative="1" as="geometry">
            <mxPoint x="497" y="440" as="sourcePoint" />
            <mxPoint x="497" y="480" as="targetPoint" />
            <Array as="points">
              <mxPoint x="497.5" y="460" />
            </Array>
          </mxGeometry>
        </mxCell>
        <mxCell id="V1wCiQhz8U4Y6uBU5TtN-37" value="Business Logic&amp;nbsp;&lt;span style=&quot;background-color: initial;&quot;&gt;component microservice&lt;/span&gt;" style="html=1;dashed=0;whiteSpace=wrap;shape=mxgraph.dfd.start;fontStyle=1;fillColor=#f0a30a;fontColor=#000000;strokeColor=#BD7000;" vertex="1" parent="1">
          <mxGeometry x="560" y="370" width="120" height="50" as="geometry" />
        </mxCell>
        <mxCell id="V1wCiQhz8U4Y6uBU5TtN-38" value="Database" style="shape=datastore;whiteSpace=wrap;html=1;" vertex="1" parent="1">
          <mxGeometry x="592.5" y="490" width="55" height="50" as="geometry" />
        </mxCell>
        <mxCell id="V1wCiQhz8U4Y6uBU5TtN-39" value="" style="endArrow=classic;html=1;rounded=0;" edge="1" parent="1">
          <mxGeometry width="50" height="50" relative="1" as="geometry">
            <mxPoint x="607.5" y="480" as="sourcePoint" />
            <mxPoint x="607.5" y="440" as="targetPoint" />
          </mxGeometry>
        </mxCell>
        <mxCell id="V1wCiQhz8U4Y6uBU5TtN-40" value="" style="endArrow=classic;html=1;rounded=0;" edge="1" parent="1">
          <mxGeometry width="50" height="50" relative="1" as="geometry">
            <mxPoint x="627" y="440" as="sourcePoint" />
            <mxPoint x="627" y="480" as="targetPoint" />
            <Array as="points">
              <mxPoint x="627.5" y="460" />
            </Array>
          </mxGeometry>
        </mxCell>
        <mxCell id="V1wCiQhz8U4Y6uBU5TtN-43" style="edgeStyle=orthogonalEdgeStyle;rounded=0;orthogonalLoop=1;jettySize=auto;html=1;exitX=0.5;exitY=0.5;exitDx=0;exitDy=20;exitPerimeter=0;entryX=0.5;entryY=0.5;entryDx=0;entryDy=-25;entryPerimeter=0;" edge="1" parent="1" source="sDq0VXqV6MLcIJx__lWi-2" target="V1wCiQhz8U4Y6uBU5TtN-25">
          <mxGeometry relative="1" as="geometry" />
        </mxCell>
        <mxCell id="V1wCiQhz8U4Y6uBU5TtN-45" style="edgeStyle=orthogonalEdgeStyle;rounded=0;orthogonalLoop=1;jettySize=auto;html=1;exitX=0.5;exitY=0.5;exitDx=0;exitDy=20;exitPerimeter=0;entryX=0.5;entryY=0.5;entryDx=0;entryDy=-25;entryPerimeter=0;" edge="1" parent="1" source="sDq0VXqV6MLcIJx__lWi-2" target="V1wCiQhz8U4Y6uBU5TtN-29">
          <mxGeometry relative="1" as="geometry" />
        </mxCell>
        <mxCell id="V1wCiQhz8U4Y6uBU5TtN-46" style="edgeStyle=orthogonalEdgeStyle;rounded=0;orthogonalLoop=1;jettySize=auto;html=1;exitX=0.5;exitY=0.5;exitDx=0;exitDy=20;exitPerimeter=0;entryX=0.5;entryY=0.5;entryDx=0;entryDy=-25;entryPerimeter=0;" edge="1" parent="1" source="sDq0VXqV6MLcIJx__lWi-2" target="V1wCiQhz8U4Y6uBU5TtN-33">
          <mxGeometry relative="1" as="geometry" />
        </mxCell>
        <mxCell id="V1wCiQhz8U4Y6uBU5TtN-48" style="edgeStyle=orthogonalEdgeStyle;rounded=0;orthogonalLoop=1;jettySize=auto;html=1;exitX=0.5;exitY=0.5;exitDx=0;exitDy=20;exitPerimeter=0;entryX=0.5;entryY=0.5;entryDx=0;entryDy=-25;entryPerimeter=0;" edge="1" parent="1" source="sDq0VXqV6MLcIJx__lWi-2" target="sDq0VXqV6MLcIJx__lWi-3">
          <mxGeometry relative="1" as="geometry" />
        </mxCell>
        <mxCell id="V1wCiQhz8U4Y6uBU5TtN-50" value="" style="rounded=0;whiteSpace=wrap;html=1;opacity=0;" vertex="1" parent="1">
          <mxGeometry x="20" y="180" width="680" height="410" as="geometry" />
        </mxCell>
      </root>
    </mxGraphModel>
  </diagram>
</mxfile>
